<?xml version="1.0" encoding="UTF-8"?>
<!DOCTYPE svg PUBLIC "-//W3C//DTD SVG 1.1//EN" "http://www.w3.org/Graphics/SVG/1.1/DTD/svg11.dtd">
<svg version="1.1" xmlns="http://www.w3.org/2000/svg" xmlns:xlink="http://www.w3.org/1999/xlink" width="100" height="100"  xml:space="preserve" id="identity">
    <!-- Generated by PaintCode (www.paintcodeapp.com) -->
    <g id="identity-group" clip-path="url(#identity-rectangle)">
        <clipPath id="identity-rectangle">
            <rect x="0" y="-100" width="100" height="100"  transform="translate(0, 100)" />
        </clipPath>
        <g id="identity-group2" clip-path="url(#identity-rectangle2)" transform="translate(-22, -25) scale(1.48, 1.48)" >
            <clipPath id="identity-rectangle2">
                <rect x="0" y="0" width="100" height="100" />
            </clipPath>
            <g id="identity-group3" transform="translate(50, 50)" >
                <rect id="identity-rectangle3" stroke="rgb(0, 0, 0)" stroke-width="2" fill="none" x="-13.85" y="-14.2" width="27.69" height="28.4"  transform="translate(-5.25, 8.83) rotate(45)" rx="5" />
            </g>
            <g id="identity-group4" transform="translate(50, 50) rotate(-72)" >
                <rect id="identity-rectangle4" stroke="rgb(0, 0, 0)" stroke-width="2" fill="none" x="-13.85" y="-14.2" width="27.69" height="28.4"  transform="translate(-5.25, 8.83) rotate(45)" rx="5" />
            </g>
            <g id="identity-group5" transform="translate(50, 50) rotate(-144)" >
                <rect id="identity-rectangle5" stroke="rgb(0, 0, 0)" stroke-width="2" fill="none" x="-13.85" y="-14.2" width="27.69" height="28.4"  transform="translate(-5.25, 8.83) rotate(45)" rx="5" />
            </g>
            <g id="identity-group6" transform="translate(50, 50) rotate(-216)" >
                <rect id="identity-rectangle6" stroke="rgb(0, 0, 0)" stroke-width="2" fill="none" x="-13.85" y="-14.2" width="27.69" height="28.4"  transform="translate(-5.25, 8.83) rotate(45)" rx="5" />
            </g>
            <g id="identity-group7" transform="translate(50, 50) rotate(-288)" >
                <rect id="identity-rectangle7" stroke="rgb(0, 0, 0)" stroke-width="2" fill="none" x="-13.85" y="-14.2" width="27.69" height="28.4"  transform="translate(-5.25, 8.83) rotate(45)" rx="5" />
            </g>
        </g>
    </g>
</svg>
